<svg width="173" height="32" viewBox="0 0 173 32" fill="none" xmlns="http://www.w3.org/2000/svg">
<g clip-path="url(#clip0_1_12)">
<path d="M0.869263 31.0001V1.90918H11.7783C14.0132 1.90918 15.8882 2.32585 17.4033 3.15918C18.9279 3.99251 20.0785 5.13835 20.855 6.59668C21.641 8.04554 22.034 9.69327 22.034 11.5399C22.034 13.4054 21.641 15.0626 20.855 16.5115C20.069 17.9603 18.909 19.1014 17.3749 19.9348C15.8408 20.7586 13.9516 21.1706 11.7073 21.1706H4.47721V16.8382H10.9971C12.3039 16.8382 13.374 16.6109 14.2073 16.1563C15.0406 15.7018 15.6562 15.0768 16.0539 14.2813C16.4611 13.4859 16.6647 12.5721 16.6647 11.5399C16.6647 10.5077 16.4611 9.59857 16.0539 8.81259C15.6562 8.02661 15.0359 7.41581 14.1931 6.9802C13.3597 6.53513 12.2849 6.31259 10.9687 6.31259H6.13914V31.0001H0.869263ZM35.5887 31.4262C33.458 31.4262 31.6114 30.9575 30.0489 30.02C28.4864 29.0825 27.2743 27.7709 26.4125 26.0853C25.5603 24.3997 25.1341 22.43 25.1341 20.1762C25.1341 17.9224 25.5603 15.948 26.4125 14.2529C27.2743 12.5579 28.4864 11.2416 30.0489 10.3041C31.6114 9.36657 33.458 8.89782 35.5887 8.89782C37.7194 8.89782 39.566 9.36657 41.1285 10.3041C42.691 11.2416 43.8983 12.5579 44.7506 14.2529C45.6124 15.948 46.0432 17.9224 46.0432 20.1762C46.0432 22.43 45.6124 24.3997 44.7506 26.0853C43.8983 27.7709 42.691 29.0825 41.1285 30.02C39.566 30.9575 37.7194 31.4262 35.5887 31.4262ZM35.6171 27.3069C36.7724 27.3069 37.7383 26.9897 38.5148 26.3552C39.2913 25.7113 39.869 24.8495 40.2478 23.77C40.636 22.6904 40.8302 21.4878 40.8302 20.162C40.8302 18.8268 40.636 17.6194 40.2478 16.5399C39.869 15.4509 39.2913 14.5844 38.5148 13.9404C37.7383 13.2965 36.7724 12.9745 35.6171 12.9745C34.4334 12.9745 33.4485 13.2965 32.6625 13.9404C31.886 14.5844 31.3036 15.4509 30.9154 16.5399C30.5366 17.6194 30.3472 18.8268 30.3472 20.162C30.3472 21.4878 30.5366 22.6904 30.9154 23.77C31.3036 24.8495 31.886 25.7113 32.6625 26.3552C33.4485 26.9897 34.4334 27.3069 35.6171 27.3069ZM50.4076 31.0001V9.18191H55.3934V12.8183H55.6206C56.0184 11.5588 56.7002 10.5882 57.6661 9.90634C58.6415 9.21505 59.7542 8.86941 61.0042 8.86941C61.2883 8.86941 61.6055 8.88361 61.9559 8.91202C62.3157 8.93096 62.614 8.9641 62.8508 9.01145V13.7416C62.6329 13.6658 62.2873 13.5995 61.8138 13.5427C61.3498 13.4764 60.9 13.4433 60.4644 13.4433C59.5269 13.4433 58.6841 13.6469 57.936 14.0541C57.1973 14.4518 56.615 15.0058 56.1888 15.716C55.7627 16.4262 55.5496 17.2454 55.5496 18.1734V31.0001H50.4076ZM78.3337 9.18191V13.1592H65.7911V9.18191H78.3337ZM68.8877 3.95464H74.0297V24.4376C74.0297 25.1289 74.1339 25.6592 74.3422 26.0285C74.56 26.3884 74.8441 26.6346 75.1945 26.7671C75.545 26.8997 75.9331 26.966 76.3593 26.966C76.6812 26.966 76.9748 26.9423 77.24 26.895C77.5146 26.8476 77.7229 26.805 77.865 26.7671L78.7314 30.787C78.4568 30.8817 78.0638 30.9859 77.5525 31.0995C77.0506 31.2132 76.4351 31.2795 75.7059 31.2984C74.418 31.3363 73.2579 31.1421 72.2258 30.716C71.1936 30.2804 70.3745 29.6081 69.7684 28.699C69.1718 27.7899 68.8783 26.6535 68.8877 25.2899V3.95464ZM104.115 9.18191V13.1592H91.2172V9.18191H104.115ZM94.4417 31.0001V7.12225C94.4417 5.65444 94.7447 4.43285 95.3508 3.45748C95.9663 2.4821 96.7901 1.75293 97.8223 1.26998C98.8546 0.78702 99.9999 0.545543 101.26 0.545543C102.15 0.545543 102.941 0.616566 103.632 0.758613C104.323 0.900658 104.835 1.0285 105.166 1.14214L104.143 5.11941C103.926 5.05312 103.651 4.98683 103.32 4.92054C102.988 4.84479 102.619 4.80691 102.212 4.80691C101.255 4.80691 100.578 5.03892 100.18 5.50293C99.792 5.95748 99.5979 6.61088 99.5979 7.46316V31.0001H94.4417ZM116.839 31.4262C114.708 31.4262 112.862 30.9575 111.299 30.02C109.737 29.0825 108.524 27.7709 107.663 26.0853C106.81 24.3997 106.384 22.43 106.384 20.1762C106.384 17.9224 106.81 15.948 107.663 14.2529C108.524 12.5579 109.737 11.2416 111.299 10.3041C112.862 9.36657 114.708 8.89782 116.839 8.89782C118.969 8.89782 120.816 9.36657 122.379 10.3041C123.941 11.2416 125.148 12.5579 126.001 14.2529C126.862 15.948 127.293 17.9224 127.293 20.1762C127.293 22.43 126.862 24.3997 126.001 26.0853C125.148 27.7709 123.941 29.0825 122.379 30.02C120.816 30.9575 118.969 31.4262 116.839 31.4262ZM116.867 27.3069C118.022 27.3069 118.988 26.9897 119.765 26.3552C120.541 25.7113 121.119 24.8495 121.498 23.77C121.886 22.6904 122.08 21.4878 122.08 20.162C122.08 18.8268 121.886 17.6194 121.498 16.5399C121.119 15.4509 120.541 14.5844 119.765 13.9404C118.988 13.2965 118.022 12.9745 116.867 12.9745C115.683 12.9745 114.699 13.2965 113.913 13.9404C113.136 14.5844 112.554 15.4509 112.165 16.5399C111.787 17.6194 111.597 18.8268 111.597 20.162C111.597 21.4878 111.787 22.6904 112.165 23.77C112.554 24.8495 113.136 25.7113 113.913 26.3552C114.699 26.9897 115.683 27.3069 116.867 27.3069ZM136.8 1.90918V31.0001H131.658V1.90918H136.8ZM142.087 31.0001V9.18191H147.229V31.0001H142.087ZM144.673 6.08532C143.858 6.08532 143.157 5.81543 142.57 5.27566C141.983 4.72641 141.69 4.06827 141.69 3.30123C141.69 2.52471 141.983 1.86657 142.57 1.32679C143.157 0.777551 143.858 0.50293 144.673 0.50293C145.496 0.50293 146.197 0.777551 146.775 1.32679C147.362 1.86657 147.656 2.52471 147.656 3.30123C147.656 4.06827 147.362 4.72641 146.775 5.27566C146.197 5.81543 145.496 6.08532 144.673 6.08532ZM162.034 31.4262C159.903 31.4262 158.057 30.9575 156.494 30.02C154.932 29.0825 153.72 27.7709 152.858 26.0853C152.006 24.3997 151.58 22.43 151.58 20.1762C151.58 17.9224 152.006 15.948 152.858 14.2529C153.72 12.5579 154.932 11.2416 156.494 10.3041C158.057 9.36657 159.903 8.89782 162.034 8.89782C164.165 8.89782 166.011 9.36657 167.574 10.3041C169.136 11.2416 170.344 12.5579 171.196 14.2529C172.058 15.948 172.489 17.9224 172.489 20.1762C172.489 22.43 172.058 24.3997 171.196 26.0853C170.344 27.7709 169.136 29.0825 167.574 30.02C166.011 30.9575 164.165 31.4262 162.034 31.4262ZM162.062 27.3069C163.218 27.3069 164.184 26.9897 164.96 26.3552C165.737 25.7113 166.314 24.8495 166.693 23.77C167.081 22.6904 167.276 21.4878 167.276 20.162C167.276 18.8268 167.081 17.6194 166.693 16.5399C166.314 15.4509 165.737 14.5844 164.96 13.9404C164.184 13.2965 163.218 12.9745 162.062 12.9745C160.879 12.9745 159.894 13.2965 159.108 13.9404C158.331 14.5844 157.749 15.4509 157.361 16.5399C156.982 17.6194 156.793 18.8268 156.793 20.162C156.793 21.4878 156.982 22.6904 157.361 23.77C157.749 24.8495 158.331 25.7113 159.108 26.3552C159.894 26.9897 160.879 27.3069 162.062 27.3069Z" fill="black"/>
<path d="M82.6341 31.0001V9.18191H87.7762V31.0001H82.6341ZM85.2194 6.08532C84.405 6.08532 83.7042 5.81543 83.1171 5.27566C82.53 4.72641 82.2365 4.06827 82.2365 3.30123C82.2365 2.52471 82.53 1.86657 83.1171 1.32679C83.7042 0.777551 84.405 0.50293 85.2194 0.50293C86.0432 0.50293 86.744 0.777551 87.3216 1.32679C87.9088 1.86657 88.2023 2.52471 88.2023 3.30123C88.2023 4.06827 87.9088 4.72641 87.3216 5.27566C86.744 5.81543 86.0432 6.08532 85.2194 6.08532Z" fill="#495D3A"/>
</g>
<defs>
<clipPath id="clip0_1_12">
<rect width="173" height="32" fill="white"/>
</clipPath>
</defs>
</svg>
