<svg width="178" height="31" viewBox="0 0 178 31" fill="none" xmlns="http://www.w3.org/2000/svg">
<path d="M18.808 12.648C18.808 13.992 18.484 15.252 17.836 16.428C17.212 17.604 16.216 18.552 14.848 19.272C13.504 19.992 11.8 20.352 9.736 20.352H5.524V30H0.484V4.872H9.736C11.68 4.872 13.336 5.208 14.704 5.88C16.072 6.552 17.092 7.476 17.764 8.652C18.46 9.828 18.808 11.16 18.808 12.648ZM9.52 16.284C10.912 16.284 11.944 15.972 12.616 15.348C13.288 14.7 13.624 13.8 13.624 12.648C13.624 10.2 12.256 8.976 9.52 8.976H5.524V16.284H9.52ZM57.5834 13.152C58.2314 12.096 59.0714 11.268 60.1034 10.668C61.1594 10.068 62.3594 9.768 63.7034 9.768V15.06H62.3714C60.7874 15.06 59.5874 15.432 58.7714 16.176C57.9794 16.92 57.5834 18.216 57.5834 20.064V30H52.5434V10.056H57.5834V13.152ZM76.5661 14.196V23.844C76.5661 24.516 76.7221 25.008 77.0341 25.32C77.3701 25.608 77.9221 25.752 78.6901 25.752H81.0301V30H77.8621C73.6141 30 71.4901 27.936 71.4901 23.808V14.196H69.1141V10.056H71.4901V5.124H76.5661V10.056H81.0301V14.196H76.5661ZM97.3991 14.196H93.9071V30H88.7951V14.196H86.5271V10.056H88.7951V9.048C88.7951 6.6 89.4911 4.8 90.8831 3.648C92.2751 2.496 94.3751 1.956 97.1831 2.028V6.276C95.9591 6.252 95.1071 6.456 94.6271 6.888C94.1471 7.32 93.9071 8.1 93.9071 9.228V10.056H97.3991V14.196ZM113.121 30.324C111.201 30.324 109.473 29.904 107.937 29.064C106.401 28.2 105.189 26.988 104.301 25.428C103.437 23.868 103.005 22.068 103.005 20.028C103.005 17.988 103.449 16.188 104.337 14.628C105.249 13.068 106.485 11.868 108.045 11.028C109.605 10.164 111.345 9.732 113.265 9.732C115.185 9.732 116.925 10.164 118.485 11.028C120.045 11.868 121.269 13.068 122.157 14.628C123.069 16.188 123.525 17.988 123.525 20.028C123.525 22.068 123.057 23.868 122.121 25.428C121.209 26.988 119.961 28.2 118.377 29.064C116.817 29.904 115.065 30.324 113.121 30.324ZM113.121 25.932C114.033 25.932 114.885 25.716 115.677 25.284C116.493 24.828 117.141 24.156 117.621 23.268C118.101 22.38 118.341 21.3 118.341 20.028C118.341 18.132 117.837 16.68 116.829 15.672C115.845 14.64 114.633 14.124 113.193 14.124C111.753 14.124 110.541 14.64 109.557 15.672C108.597 16.68 108.117 18.132 108.117 20.028C108.117 21.924 108.585 23.388 109.521 24.42C110.481 25.428 111.681 25.932 113.121 25.932ZM117.405 4.62L109.125 8.4V4.8L117.405 0.515998V4.62ZM135.862 3.36V30H130.822V3.36H135.862ZM166.917 30.324C164.997 30.324 163.269 29.904 161.733 29.064C160.197 28.2 158.985 26.988 158.097 25.428C157.233 23.868 156.801 22.068 156.801 20.028C156.801 17.988 157.245 16.188 158.133 14.628C159.045 13.068 160.281 11.868 161.841 11.028C163.401 10.164 165.141 9.732 167.061 9.732C168.981 9.732 170.721 10.164 172.281 11.028C173.841 11.868 175.065 13.068 175.953 14.628C176.865 16.188 177.321 17.988 177.321 20.028C177.321 22.068 176.853 23.868 175.917 25.428C175.005 26.988 173.757 28.2 172.173 29.064C170.613 29.904 168.861 30.324 166.917 30.324ZM166.917 25.932C167.829 25.932 168.681 25.716 169.473 25.284C170.289 24.828 170.937 24.156 171.417 23.268C171.897 22.38 172.137 21.3 172.137 20.028C172.137 18.132 171.633 16.68 170.625 15.672C169.641 14.64 168.429 14.124 166.989 14.124C165.549 14.124 164.337 14.64 163.353 15.672C162.393 16.68 161.913 18.132 161.913 20.028C161.913 21.924 162.381 23.388 163.317 24.42C164.277 25.428 165.477 25.932 166.917 25.932Z" fill="black"/>
<path d="M34.8423 30.324C32.9223 30.324 31.1943 29.904 29.6583 29.064C28.1223 28.2 26.9103 26.988 26.0223 25.428C25.1583 23.868 24.7263 22.068 24.7263 20.028C24.7263 17.988 25.1703 16.188 26.0583 14.628C26.9703 13.068 28.2063 11.868 29.7663 11.028C31.3263 10.164 33.0663 9.732 34.9863 9.732C36.9063 9.732 38.6463 10.164 40.2063 11.028C41.7663 11.868 42.9903 13.068 43.8783 14.628C44.7903 16.188 45.2463 17.988 45.2463 20.028C45.2463 22.068 44.7783 23.868 43.8423 25.428C42.9303 26.988 41.6823 28.2 40.0983 29.064C38.5383 29.904 36.7863 30.324 34.8423 30.324ZM34.8423 25.932C35.7543 25.932 36.6063 25.716 37.3983 25.284C38.2143 24.828 38.8623 24.156 39.3423 23.268C39.8223 22.38 40.0623 21.3 40.0623 20.028C40.0623 18.132 39.5583 16.68 38.5503 15.672C37.5663 14.64 36.3543 14.124 34.9143 14.124C33.4743 14.124 32.2623 14.64 31.2783 15.672C30.3183 16.68 29.8383 18.132 29.8383 20.028C29.8383 21.924 30.3063 23.388 31.2423 24.42C32.2023 25.428 33.4023 25.932 34.8423 25.932ZM146.998 7.68C146.11 7.68 145.366 7.404 144.766 6.852C144.19 6.276 143.902 5.568 143.902 4.728C143.902 3.888 144.19 3.192 144.766 2.64C145.366 2.064 146.11 1.776 146.998 1.776C147.886 1.776 148.618 2.064 149.194 2.64C149.794 3.192 150.094 3.888 150.094 4.728C150.094 5.568 149.794 6.276 149.194 6.852C148.618 7.404 147.886 7.68 146.998 7.68ZM149.482 10.056V30H144.442V10.056H149.482Z" fill="#495D3A"/>
</svg>
