<svg width="178" height="80" viewBox="0 0 178 30" fill="none" xmlns="http://www.w3.org/2000/svg">
<path d="M18.808 11.648C18.808 12.992 18.484 14.252 17.836 15.428C17.212 16.604 16.216 17.552 14.848 18.272C13.504 18.992 11.8 19.352 9.736 19.352H5.524V29H0.484V3.872H9.736C11.68 3.872 13.336 4.208 14.704 4.88C16.072 5.552 17.092 6.476 17.764 7.652C18.46 8.828 18.808 10.16 18.808 11.648ZM9.52 15.284C10.912 15.284 11.944 14.972 12.616 14.348C13.288 13.7 13.624 12.8 13.624 11.648C13.624 9.2 12.256 7.976 9.52 7.976H5.524V15.284H9.52ZM34.8423 29.324C32.9223 29.324 31.1943 28.904 29.6583 28.064C28.1223 27.2 26.9103 25.988 26.0223 24.428C25.1583 22.868 24.7263 21.068 24.7263 19.028C24.7263 16.988 25.1703 15.188 26.0583 13.628C26.9703 12.068 28.2063 10.868 29.7663 10.028C31.3263 9.164 33.0663 8.732 34.9863 8.732C36.9063 8.732 38.6463 9.164 40.2063 10.028C41.7663 10.868 42.9903 12.068 43.8783 13.628C44.7903 15.188 45.2463 16.988 45.2463 19.028C45.2463 21.068 44.7783 22.868 43.8423 24.428C42.9303 25.988 41.6823 27.2 40.0983 28.064C38.5383 28.904 36.7863 29.324 34.8423 29.324ZM34.8423 24.932C35.7543 24.932 36.6063 24.716 37.3983 24.284C38.2143 23.828 38.8623 23.156 39.3423 22.268C39.8223 21.38 40.0623 20.3 40.0623 19.028C40.0623 17.132 39.5583 15.68 38.5503 14.672C37.5663 13.64 36.3543 13.124 34.9143 13.124C33.4743 13.124 32.2623 13.64 31.2783 14.672C30.3183 15.68 29.8383 17.132 29.8383 19.028C29.8383 20.924 30.3063 22.388 31.2423 23.42C32.2023 24.428 33.4023 24.932 34.8423 24.932ZM57.5834 12.152C58.2314 11.096 59.0714 10.268 60.1034 9.668C61.1594 9.068 62.3594 8.768 63.7034 8.768V14.06H62.3714C60.7874 14.06 59.5874 14.432 58.7714 15.176C57.9794 15.92 57.5834 17.216 57.5834 19.064V29H52.5434V9.056H57.5834V12.152ZM76.5661 13.196V22.844C76.5661 23.516 76.7221 24.008 77.0341 24.32C77.3701 24.608 77.9221 24.752 78.6901 24.752H81.0301V29H77.8621C73.6141 29 71.4901 26.936 71.4901 22.808V13.196H69.1141V9.056H71.4901V4.124H76.5661V9.056H81.0301V13.196H76.5661ZM97.3991 13.196H93.9071V29H88.7951V13.196H86.5271V9.056H88.7951V8.048C88.7951 5.6 89.4911 3.8 90.8831 2.648C92.2751 1.496 94.3751 0.955999 97.1831 1.028V5.276C95.9591 5.252 95.1071 5.456 94.6271 5.888C94.1471 6.32 93.9071 7.1 93.9071 8.228V9.056H97.3991V13.196ZM113.121 29.324C111.201 29.324 109.473 28.904 107.937 28.064C106.401 27.2 105.189 25.988 104.301 24.428C103.437 22.868 103.005 21.068 103.005 19.028C103.005 16.988 103.449 15.188 104.337 13.628C105.249 12.068 106.485 10.868 108.045 10.028C109.605 9.164 111.345 8.732 113.265 8.732C115.185 8.732 116.925 9.164 118.485 10.028C120.045 10.868 121.269 12.068 122.157 13.628C123.069 15.188 123.525 16.988 123.525 19.028C123.525 21.068 123.057 22.868 122.121 24.428C121.209 25.988 119.961 27.2 118.377 28.064C116.817 28.904 115.065 29.324 113.121 29.324ZM113.121 24.932C114.033 24.932 114.885 24.716 115.677 24.284C116.493 23.828 117.141 23.156 117.621 22.268C118.101 21.38 118.341 20.3 118.341 19.028C118.341 17.132 117.837 15.68 116.829 14.672C115.845 13.64 114.633 13.124 113.193 13.124C111.753 13.124 110.541 13.64 109.557 14.672C108.597 15.68 108.117 17.132 108.117 19.028C108.117 20.924 108.585 22.388 109.521 23.42C110.481 24.428 111.681 24.932 113.121 24.932ZM135.862 2.36V29H130.822V2.36H135.862ZM146.998 6.68C146.11 6.68 145.366 6.404 144.766 5.852C144.19 5.276 143.902 4.568 143.902 3.728C143.902 2.888 144.19 2.192 144.766 1.64C145.366 1.064 146.11 0.775999 146.998 0.775999C147.886 0.775999 148.618 1.064 149.194 1.64C149.794 2.192 150.094 2.888 150.094 3.728C150.094 4.568 149.794 5.276 149.194 5.852C148.618 6.404 147.886 6.68 146.998 6.68ZM149.482 9.056V29H144.442V9.056H149.482Z" fill="black"/>
<path d="M166.917 29.324C164.997 29.324 163.269 28.904 161.733 28.064C160.197 27.2 158.985 25.988 158.097 24.428C157.233 22.868 156.801 21.068 156.801 19.028C156.801 16.988 157.245 15.188 158.133 13.628C159.045 12.068 160.281 10.868 161.841 10.028C163.401 9.164 165.141 8.732 167.061 8.732C168.981 8.732 170.721 9.164 172.281 10.028C173.841 10.868 175.065 12.068 175.953 13.628C176.865 15.188 177.321 16.988 177.321 19.028C177.321 21.068 176.853 22.868 175.917 24.428C175.005 25.988 173.757 27.2 172.173 28.064C170.613 28.904 168.861 29.324 166.917 29.324ZM166.917 24.932C167.829 24.932 168.681 24.716 169.473 24.284C170.289 23.828 170.937 23.156 171.417 22.268C171.897 21.38 172.137 20.3 172.137 19.028C172.137 17.132 171.633 15.68 170.625 14.672C169.641 13.64 168.429 13.124 166.989 13.124C165.549 13.124 164.337 13.64 163.353 14.672C162.393 15.68 161.913 17.132 161.913 19.028C161.913 20.924 162.381 22.388 163.317 23.42C164.277 24.428 165.477 24.932 166.917 24.932Z" fill="#495D3A"/>
</svg>
