<svg width="173" height="32" viewBox="0 0 173 32" fill="none" xmlns="http://www.w3.org/2000/svg">
<path d="M0.869318 31V1.90909H11.7784C14.0133 1.90909 15.8883 2.32576 17.4034 3.15909C18.928 3.99242 20.0786 5.13826 20.8551 6.59659C21.6411 8.04545 22.0341 9.69318 22.0341 11.5398C22.0341 13.4053 21.6411 15.0625 20.8551 16.5114C20.0691 17.9602 18.9091 19.1013 17.375 19.9347C15.8409 20.7585 13.9517 21.1705 11.7074 21.1705H4.47727V16.8381H10.9972C12.304 16.8381 13.3741 16.6108 14.2074 16.1562C15.0407 15.7017 15.6563 15.0767 16.054 14.2812C16.4612 13.4858 16.6648 12.572 16.6648 11.5398C16.6648 10.5076 16.4612 9.59848 16.054 8.8125C15.6563 8.02652 15.036 7.41572 14.1932 6.98011C13.3598 6.53504 12.285 6.3125 10.9688 6.3125H6.1392V31H0.869318ZM35.5888 31.4261C33.4581 31.4261 31.6115 30.9574 30.049 30.0199C28.4865 29.0824 27.2744 27.7708 26.4126 26.0852C25.5604 24.3996 25.1342 22.4299 25.1342 20.1761C25.1342 17.9223 25.5604 15.9479 26.4126 14.2528C27.2744 12.5578 28.4865 11.2415 30.049 10.304C31.6115 9.36648 33.4581 8.89773 35.5888 8.89773C37.7195 8.89773 39.5661 9.36648 41.1286 10.304C42.6911 11.2415 43.8984 12.5578 44.7507 14.2528C45.6125 15.9479 46.0433 17.9223 46.0433 20.1761C46.0433 22.4299 45.6125 24.3996 44.7507 26.0852C43.8984 27.7708 42.6911 29.0824 41.1286 30.0199C39.5661 30.9574 37.7195 31.4261 35.5888 31.4261ZM35.6172 27.3068C36.7725 27.3068 37.7384 26.9896 38.5149 26.3551C39.2914 25.7112 39.8691 24.8494 40.2479 23.7699C40.6361 22.6903 40.8303 21.4877 40.8303 20.1619C40.8303 18.8267 40.6361 17.6193 40.2479 16.5398C39.8691 15.4508 39.2914 14.5843 38.5149 13.9403C37.7384 13.2964 36.7725 12.9744 35.6172 12.9744C34.4335 12.9744 33.4486 13.2964 32.6626 13.9403C31.8861 14.5843 31.3037 15.4508 30.9155 16.5398C30.5367 17.6193 30.3473 18.8267 30.3473 20.1619C30.3473 21.4877 30.5367 22.6903 30.9155 23.7699C31.3037 24.8494 31.8861 25.7112 32.6626 26.3551C33.4486 26.9896 34.4335 27.3068 35.6172 27.3068ZM50.4077 31V9.18182H55.3935V12.8182H55.6207C56.0185 11.5587 56.7003 10.5881 57.6662 9.90625C58.6416 9.21496 59.7543 8.86932 61.0043 8.86932C61.2884 8.86932 61.6056 8.88352 61.956 8.91193C62.3158 8.93087 62.6141 8.96401 62.8509 9.01136V13.7415C62.633 13.6657 62.2874 13.5994 61.8139 13.5426C61.3499 13.4763 60.9001 13.4432 60.4645 13.4432C59.527 13.4432 58.6842 13.6468 57.9361 14.054C57.1974 14.4517 56.6151 15.0057 56.1889 15.7159C55.7628 16.4261 55.5497 17.2453 55.5497 18.1733V31H50.4077ZM78.3338 9.18182V13.1591H65.7912V9.18182H78.3338ZM68.8878 3.95455H74.0298V24.4375C74.0298 25.1288 74.134 25.6591 74.3423 26.0284C74.5601 26.3883 74.8442 26.6345 75.1946 26.767C75.545 26.8996 75.9332 26.9659 76.3594 26.9659C76.6813 26.9659 76.9749 26.9422 77.2401 26.8949C77.5147 26.8475 77.723 26.8049 77.8651 26.767L78.7315 30.7869C78.4569 30.8816 78.0639 30.9858 77.5526 31.0994C77.0507 31.2131 76.4351 31.2794 75.706 31.2983C74.4181 31.3362 73.258 31.142 72.2259 30.7159C71.1937 30.2803 70.3745 29.608 69.7685 28.6989C69.1719 27.7898 68.8783 26.6534 68.8878 25.2898V3.95455ZM104.115 9.18182V13.1591H91.2173V9.18182H104.115ZM94.4418 31V7.12216C94.4418 5.65435 94.7448 4.43276 95.3509 3.45739C95.9664 2.48201 96.7902 1.75284 97.8224 1.26989C98.8546 0.78693 100 0.545453 101.26 0.545453C102.15 0.545453 102.941 0.616476 103.632 0.758523C104.323 0.900568 104.835 1.02841 105.166 1.14205L104.143 5.11932C103.926 5.05303 103.651 4.98674 103.32 4.92045C102.988 4.8447 102.619 4.80682 102.212 4.80682C101.255 4.80682 100.578 5.03883 100.18 5.50284C99.7921 5.95739 99.598 6.61079 99.598 7.46307V31H94.4418ZM116.839 31.4261C114.708 31.4261 112.862 30.9574 111.299 30.0199C109.737 29.0824 108.524 27.7708 107.663 26.0852C106.81 24.3996 106.384 22.4299 106.384 20.1761C106.384 17.9223 106.81 15.9479 107.663 14.2528C108.524 12.5578 109.737 11.2415 111.299 10.304C112.862 9.36648 114.708 8.89773 116.839 8.89773C118.969 8.89773 120.816 9.36648 122.379 10.304C123.941 11.2415 125.148 12.5578 126.001 14.2528C126.862 15.9479 127.293 17.9223 127.293 20.1761C127.293 22.4299 126.862 24.3996 126.001 26.0852C125.148 27.7708 123.941 29.0824 122.379 30.0199C120.816 30.9574 118.969 31.4261 116.839 31.4261ZM116.867 27.3068C118.022 27.3068 118.988 26.9896 119.765 26.3551C120.541 25.7112 121.119 24.8494 121.498 23.7699C121.886 22.6903 122.08 21.4877 122.08 20.1619C122.08 18.8267 121.886 17.6193 121.498 16.5398C121.119 15.4508 120.541 14.5843 119.765 13.9403C118.988 13.2964 118.022 12.9744 116.867 12.9744C115.683 12.9744 114.699 13.2964 113.913 13.9403C113.136 14.5843 112.554 15.4508 112.165 16.5398C111.787 17.6193 111.597 18.8267 111.597 20.1619C111.597 21.4877 111.787 22.6903 112.165 23.7699C112.554 24.8494 113.136 25.7112 113.913 26.3551C114.699 26.9896 115.683 27.3068 116.867 27.3068ZM136.8 1.90909V31H131.658V1.90909H136.8ZM142.087 31V9.18182H147.229V31H142.087ZM144.673 6.08523C143.858 6.08523 143.157 5.81534 142.57 5.27557C141.983 4.72632 141.69 4.06818 141.69 3.30114C141.69 2.52462 141.983 1.86648 142.57 1.3267C143.157 0.777461 143.858 0.50284 144.673 0.50284C145.496 0.50284 146.197 0.777461 146.775 1.3267C147.362 1.86648 147.656 2.52462 147.656 3.30114C147.656 4.06818 147.362 4.72632 146.775 5.27557C146.197 5.81534 145.496 6.08523 144.673 6.08523ZM162.034 31.4261C159.903 31.4261 158.057 30.9574 156.494 30.0199C154.932 29.0824 153.72 27.7708 152.858 26.0852C152.006 24.3996 151.58 22.4299 151.58 20.1761C151.58 17.9223 152.006 15.9479 152.858 14.2528C153.72 12.5578 154.932 11.2415 156.494 10.304C158.057 9.36648 159.903 8.89773 162.034 8.89773C164.165 8.89773 166.011 9.36648 167.574 10.304C169.136 11.2415 170.344 12.5578 171.196 14.2528C172.058 15.9479 172.489 17.9223 172.489 20.1761C172.489 22.4299 172.058 24.3996 171.196 26.0852C170.344 27.7708 169.136 29.0824 167.574 30.0199C166.011 30.9574 164.165 31.4261 162.034 31.4261ZM162.062 27.3068C163.218 27.3068 164.184 26.9896 164.96 26.3551C165.737 25.7112 166.314 24.8494 166.693 23.7699C167.081 22.6903 167.276 21.4877 167.276 20.1619C167.276 18.8267 167.081 17.6193 166.693 16.5398C166.314 15.4508 165.737 14.5843 164.96 13.9403C164.184 13.2964 163.218 12.9744 162.062 12.9744C160.879 12.9744 159.894 13.2964 159.108 13.9403C158.331 14.5843 157.749 15.4508 157.361 16.5398C156.982 17.6193 156.793 18.8267 156.793 20.1619C156.793 21.4877 156.982 22.6903 157.361 23.7699C157.749 24.8494 158.331 25.7112 159.108 26.3551C159.894 26.9896 160.879 27.3068 162.062 27.3068Z" fill="black"/>
<path d="M82.6342 31V9.18182H87.7763V31H82.6342ZM85.2195 6.08523C84.4051 6.08523 83.7043 5.81534 83.1172 5.27557C82.5301 4.72632 82.2365 4.06818 82.2365 3.30114C82.2365 2.52462 82.5301 1.86648 83.1172 1.3267C83.7043 0.777461 84.4051 0.50284 85.2195 0.50284C86.0433 0.50284 86.7441 0.777461 87.3217 1.3267C87.9089 1.86648 88.2024 2.52462 88.2024 3.30114C88.2024 4.06818 87.9089 4.72632 87.3217 5.27557C86.7441 5.81534 86.0433 6.08523 85.2195 6.08523Z" fill="#F90A0A"/>
</svg>
